<svg width="127" height="123" viewBox="0 0 127 123" fill="none" xmlns="http://www.w3.org/2000/svg">
<ellipse cx="63.5" cy="61.5" rx="63.5" ry="61.5" fill="#153109"/>
<path d="M56.8 67.2H70.2V61H56.8V67.2ZM56.8 57.9H83.6V51.7H56.8V57.9ZM56.8 48.6H83.6V42.4H56.8V48.6ZM50.1 79.6C48.2575 79.6 46.6808 78.9934 45.3698 77.7803C44.0588 76.5672 43.4022 75.1071 43.4 73.4V36.2C43.4 34.495 44.0566 33.0359 45.3698 31.8228C46.683 30.6097 48.2597 30.0021 50.1 30H90.3C92.1425 30 93.7203 30.6076 95.0335 31.8228C96.3467 33.038 97.0022 34.4971 97 36.2V73.4C97 75.105 96.3445 76.5651 95.0335 77.7803C93.7226 78.9955 92.1447 79.6021 90.3 79.6H50.1ZM36.7 92C34.8575 92 33.2808 91.3934 31.9698 90.1803C30.6588 88.9672 30.0022 87.5071 30 85.8V42.4H36.7V85.8H83.6V92H36.7Z" fill="#EBF1B1"/>
</svg>
