<svg width="127" height="123" viewBox="0 0 127 123" fill="none" xmlns="http://www.w3.org/2000/svg">
<ellipse cx="63.5" cy="61.5" rx="63.5" ry="61.5" fill="#153109"/>
<path d="M35.938 36.1792C39.5555 32.4141 44.4074 30.2119 49.5203 30.0145C54.6331 29.8171 59.6286 31.6391 63.5042 35.1149C67.3764 31.6449 72.3653 29.8249 77.472 30.0194C82.5787 30.2139 87.4263 32.4084 91.0445 36.1637C94.6626 39.9189 96.7842 44.9577 96.9844 50.2713C97.1847 55.5849 95.4489 60.7811 92.1245 64.8197L67.9104 90.0983C66.798 91.2564 65.3059 91.934 63.7335 91.9954C62.161 92.0568 60.6244 91.4974 59.4317 90.4293L59.0886 90.1016L34.8777 64.8197C31.5551 60.7846 29.8185 55.5932 30.015 50.2833C30.2116 44.9734 32.3269 39.9363 35.938 36.1792ZM40.3473 40.7677C37.7973 43.422 36.3273 46.9963 36.2425 50.7486C36.1578 54.5009 37.4647 58.143 39.8921 60.9192L40.3473 61.4189L63.5011 85.5131L80.0377 68.2983L69.0143 56.8305L65.7089 60.2702C63.9547 62.0964 61.5753 63.1228 59.094 63.1234C56.6126 63.124 54.2327 62.0988 52.4777 60.2734C50.7228 58.448 49.7365 55.9719 49.7359 53.3898C49.7353 50.8077 50.7205 48.3311 52.4746 46.5048L59.0294 39.6806C56.4208 37.5141 53.1557 36.3859 49.8199 36.4983C46.4841 36.6107 43.296 37.9564 40.8276 40.2939L40.3473 40.7677ZM66.8097 49.9446C67.3944 49.3362 68.1875 48.9945 69.0143 48.9945C69.8412 48.9945 70.6342 49.3362 71.219 49.9446L84.4471 63.7099L86.6549 61.4189C89.2476 58.7227 90.7237 55.0779 90.7674 51.2639C90.8112 47.4498 89.419 43.7694 86.8888 41.0096C84.3586 38.2498 80.8911 36.6299 77.2279 36.4961C73.5647 36.3624 69.9967 37.7255 67.2868 40.2939L66.8097 40.7677L56.8871 51.0933C56.3466 51.6554 56.0232 52.4044 55.9784 53.1982C55.9335 53.992 56.1703 54.7753 56.6438 55.3994L56.8871 55.6817C57.4272 56.2442 58.147 56.5807 58.9098 56.6273C59.6727 56.674 60.4254 56.4276 61.0251 55.9349L61.2964 55.6817L66.8097 49.9446Z" fill="#EBF1B1"/>
</svg>
