<svg width="127" height="123" viewBox="0 0 127 123" fill="none" xmlns="http://www.w3.org/2000/svg">
<ellipse cx="63.5" cy="61.5" rx="63.5" ry="61.5" fill="#153109"/>
<path d="M91.0056 41.0715H87.4431C87.4396 41.0715 87.4362 41.0728 87.4336 41.0752C87.4311 41.0775 87.4297 41.0807 87.4297 41.084V83.143C87.4297 84.3175 87.9339 85.4439 88.8314 86.2744C89.7289 87.1049 90.9462 87.5715 92.2155 87.5715C93.4848 87.5715 94.7021 87.1049 95.5996 86.2744C96.4971 85.4439 97.0013 84.3175 97.0013 83.143V46.6197C97.0013 45.1482 96.3696 43.737 95.2452 42.6966C94.1208 41.6561 92.5958 41.0715 91.0056 41.0715Z" fill="#EBF1B1"/>
<path d="M82.644 83.1429V35.5357C82.644 34.8088 82.4893 34.0889 82.1887 33.4173C81.888 32.7457 81.4474 32.1354 80.8919 31.6214C80.3364 31.1073 79.6769 30.6996 78.9511 30.4214C78.2253 30.1432 77.4474 30 76.6618 30H35.9823C34.3957 30 32.8741 30.5832 31.7522 31.6214C30.6303 32.6595 30 34.0676 30 35.5357V84.25C30 86.3054 30.8824 88.2767 32.453 89.7301C34.0237 91.1835 36.1539 92 38.3752 92H89.6508C89.6734 92.0002 89.6959 91.9962 89.7168 91.9883C89.7378 91.9803 89.7568 91.9686 89.7728 91.9538C89.7888 91.939 89.8015 91.9214 89.8101 91.902C89.8187 91.8826 89.823 91.8618 89.8228 91.8408C89.8227 91.8061 89.8102 91.7723 89.7872 91.7447C89.7642 91.7172 89.732 91.6975 89.6956 91.6886C87.6714 91.1748 85.8854 90.0605 84.6115 88.5168C83.3377 86.973 82.6465 85.0852 82.644 83.1429ZM39.5716 43.2857C39.5716 42.6984 39.8238 42.1352 40.2725 41.72C40.7213 41.3047 41.3299 41.0714 41.9646 41.0714H51.5362C52.1708 41.0714 52.7795 41.3047 53.2282 41.72C53.677 42.1352 53.9291 42.6984 53.9291 43.2857V52.1429C53.9291 52.7301 53.677 53.2933 53.2282 53.7086C52.7795 54.1239 52.1708 54.3571 51.5362 54.3571H41.9646C41.3299 54.3571 40.7213 54.1239 40.2725 53.7086C39.8238 53.2933 39.5716 52.7301 39.5716 52.1429V43.2857ZM70.6795 80.9286H42.0319C40.7442 80.9286 39.6389 80.0124 39.5746 78.8208C39.559 78.5215 39.6093 78.2223 39.7224 77.9414C39.8354 77.6605 40.009 77.4038 40.2324 77.1868C40.4559 76.9698 40.7246 76.797 41.0224 76.679C41.3201 76.5609 41.6406 76.5 41.9646 76.5H70.6122C71.8999 76.5 73.0051 77.4162 73.0694 78.6077C73.085 78.9071 73.0347 79.2063 72.9217 79.4872C72.8086 79.7681 72.6351 80.0248 72.4116 80.2418C72.1882 80.4588 71.9194 80.6316 71.6217 80.7496C71.3239 80.8677 71.0034 80.9285 70.6795 80.9286ZM70.6795 72.0714H42.0319C40.7442 72.0714 39.6389 71.1553 39.5746 69.9637C39.559 69.6643 39.6093 69.3651 39.7224 69.0842C39.8354 68.8033 40.009 68.5466 40.2324 68.3296C40.4559 68.1126 40.7246 67.9399 41.0224 67.8218C41.3201 67.7038 41.6406 67.6429 41.9646 67.6429H70.6122C71.8999 67.6429 73.0051 68.559 73.0694 69.7506C73.085 70.05 73.0347 70.3492 72.9217 70.6301C72.8086 70.9109 72.6351 71.1677 72.4116 71.3847C72.1882 71.6017 71.9194 71.7744 71.6217 71.8925C71.3239 72.0105 71.0034 72.0714 70.6795 72.0714ZM70.6795 63.2143H42.0319C40.7442 63.2143 39.6389 62.2981 39.5746 61.1066C39.559 60.8072 39.6093 60.508 39.7224 60.2271C39.8354 59.9462 40.009 59.6895 40.2324 59.4725C40.4559 59.2555 40.7246 59.0827 41.0224 58.9647C41.3201 58.8466 41.6406 58.7857 41.9646 58.7857H70.6122C71.8999 58.7857 73.0051 59.7019 73.0694 60.8934C73.085 61.1928 73.0347 61.492 72.9217 61.7729C72.8086 62.0538 72.6351 62.3105 72.4116 62.5275C72.1882 62.7445 71.9194 62.9173 71.6217 63.0353C71.3239 63.1534 71.0034 63.2143 70.6795 63.2143ZM70.6795 54.3571H61.1751C59.8875 54.3571 58.7822 53.441 58.7179 52.2494C58.7023 51.95 58.7526 51.6508 58.8657 51.3699C58.9787 51.089 59.1522 50.8323 59.3757 50.6153C59.5992 50.3983 59.8679 50.2256 60.1656 50.1075C60.4634 49.9895 60.7839 49.9286 61.1078 49.9286H70.6122C71.8999 49.9286 73.0051 50.8447 73.0694 52.0363C73.085 52.3357 73.0347 52.6349 72.9217 52.9158C72.8086 53.1967 72.6351 53.4534 72.4116 53.6704C72.1882 53.8874 71.9194 54.0601 71.6217 54.1782C71.3239 54.2962 71.0034 54.3571 70.6795 54.3571ZM70.6795 45.5H61.1751C59.8875 45.5 58.7822 44.5838 58.7179 43.3923C58.7023 43.0929 58.7526 42.7937 58.8657 42.5128C58.9787 42.2319 59.1522 41.9752 59.3757 41.7582C59.5992 41.5412 59.8679 41.3684 60.1656 41.2504C60.4634 41.1323 60.7839 41.0715 61.1078 41.0714H70.6122C71.8999 41.0714 73.0051 41.9876 73.0694 43.1792C73.085 43.4785 73.0347 43.7777 72.9217 44.0586C72.8086 44.3395 72.6351 44.5962 72.4116 44.8132C72.1882 45.0302 71.9194 45.203 71.6217 45.321C71.3239 45.4391 71.0034 45.5 70.6795 45.5Z" fill="#EBF1B1"/>
</svg>
