<svg width="127" height="123" viewBox="0 0 127 123" fill="none" xmlns="http://www.w3.org/2000/svg">
<ellipse cx="63.5" cy="61.5" rx="63.5" ry="61.5" fill="#153109"/>
<path d="M90.5617 72.9753V68.9692C90.347 67.132 89.444 65.4358 88.0248 64.2044C86.6057 62.9729 84.7697 62.2922 82.8672 62.2922C80.9647 62.2922 79.1287 62.9729 77.7096 64.2044C76.2904 65.4358 75.3873 67.132 75.1727 68.9692V72.9753C74.3171 73.0316 73.5116 73.3873 72.9052 73.9766C72.2989 74.5658 71.9329 75.3488 71.875 76.1802V85.5279C71.8787 86.4025 72.2193 87.244 72.8297 87.8867C73.44 88.5293 74.2759 88.9265 75.1727 88.9999H90.2869C91.1868 88.9963 92.0527 88.6653 92.7139 88.0721C93.3752 87.4789 93.7838 86.6665 93.8594 85.795V76.4473C93.8557 75.5727 93.5151 74.7312 92.9047 74.0886C92.2943 73.4459 91.4584 73.0487 90.5617 72.9753ZM78.7451 68.9692C78.7707 68.4746 78.899 67.9901 79.1223 67.5449C79.3455 67.0997 79.6591 66.7031 80.0442 66.3787C80.4293 66.0544 80.8779 65.8091 81.363 65.6576C81.8481 65.5061 82.3598 65.4515 82.8672 65.4972C83.3746 65.4515 83.8862 65.5061 84.3714 65.6576C84.8565 65.8091 85.3051 66.0544 85.6902 66.3787C86.0752 66.7031 86.3888 67.0997 86.6121 67.5449C86.8353 67.9901 86.9636 68.4746 86.9893 68.9692V72.9753H78.7451V68.9692Z" fill="#EBF1B1"/>
<path d="M97 56.5692V32.3762C97 30.9504 96.4118 29.5829 95.3647 28.5747C94.3176 27.5664 92.8975 27 91.4167 27H35.5833C34.1025 27 32.6824 27.5664 31.6353 28.5747C30.5882 29.5829 30 30.9504 30 32.3762V80.7622C30 82.1881 30.5882 83.5556 31.6353 84.5638C32.6824 85.572 34.1025 86.1385 35.5833 86.1385H66.2917V80.7622H35.5833V32.3762H91.4167V56.5692" fill="#EBF1B1"/>
<path d="M47.0117 37.4922H41.5156V42.9427H47.0117V37.4922ZM85.4844 37.4922H52.5078V42.9427H85.4844V37.4922ZM66.248 70.1955H52.5078V75.646H66.248V70.1955ZM47.0117 70.1955H41.5156V75.646H47.0117V70.1955ZM58.0039 48.3933H52.5078V53.8438H58.0039V48.3933ZM85.4844 48.3933H63.5V53.8438H85.4844V48.3933ZM71.2165 59.2944H63.5V64.7449H69.5457V63.3823C69.5747 61.8618 70.1698 60.4057 71.2165 59.2944ZM58.0039 59.2944H52.5078V64.7449H58.0039V59.2944Z" fill="#EBF1B1"/>
</svg>
